<svg xmlns="http://www.w3.org/2000/svg" viewBox="0 0 64 64" width="64" height="64" role="img" aria-label="ComplexBuilds logo">
  <rect width="64" height="64" rx="10" fill="#FFD100"/>
  <!-- helmet -->
  <path d="M32 12C21.5 12 16 20.5 16 28h32c0-7.5-5.5-16-16-16z" fill="#111"/>
  <path d="M16 28h32v6H16z" fill="#111"/>
  <!-- visor -->
  <path d="M22 22h20c1 0 2 1 2 2v4H20v-4c0-1 1-2 2-2z" fill="#FFD100"/>
  <!-- crossed tools -->
  <g stroke="#111" stroke-width="4" stroke-linecap="round" fill="none">
    <path d="M24 38l16 14"/>
    <path d="M40 38L24 52"/>
  </g>
  <circle cx="24" cy="38" r="3" fill="#111"/>
  <circle cx="40" cy="38" r="3" fill="#111"/>
  <!-- hammer head -->
  <rect x="38" y="48" width="10" height="6" rx="1" fill="#111" transform="rotate(-45 43 51)"/>
</svg>
